<?xml version="1.0" standalone="no"?>
<!DOCTYPE svg PUBLIC "-//W3C//DTD SVG 1.1//EN" "http://www.w3.org/Graphics/SVG/1.1/DTD/svg11.dtd" >
<svg xmlns="http://www.w3.org/2000/svg">
<metadata>Generated by IcoMoon</metadata>
<defs>
<font id="icomoon" horiz-adv-x="1024">
<font-face units-per-em="1024" ascent="960" descent="-64" />
<missing-glyph horiz-adv-x="1024" />
<glyph unicode="&#x20;" horiz-adv-x="512" d="" />
<glyph unicode="&#xe900;" glyph-name="arrow" d="M219.575 442.636l517.193-517.12 68.949 68.998-517.193 517.12zM736.768 959.756l68.949-68.998-517.193-517.12-68.949 68.998z" />
<glyph unicode="&#xe901;" glyph-name="comments" d="M931.025 348.369l-0.419-62.673-57.088-0.372c48.873 1.187 56.413 9.332 57.507 63.046zM931.025 348.369l0.209 29.789c0-11.264-0.023-21.085-0.209-29.789zM838.144 285.091l35.375 0.233c-10.1-0.233-21.574-0.233-35.375-0.233zM791.948 517.818l-94.906-0.419c-25.706 0-46.545 20.839-46.545 46.545s20.839 46.545 46.545 46.545l94.906 0.419c25.706 0 46.545-20.839 46.545-46.545s-20.839-46.545-46.545-46.545zM559.22 610.909c25.706 0 46.545-20.839 46.545-46.545s-20.839-46.545-46.545-46.545l-94.906-0.419c-25.706 0-46.545 20.839-46.545 46.545s20.839 46.545 46.545 46.545zM94.464 337.92c1.42-44.474 10.31-51.549 63.325-52.643l-62.836 0.419zM94.464 337.92c-0.349 11.008-0.256 24.157-0.256 40.239zM188.742 285.091c-11.636 0-21.946 0-30.953 0.186zM231.587 610.49l94.906 0.419c25.706 0 46.545-20.839 46.545-46.545s-20.839-46.545-46.545-46.545l-94.906-0.419c-25.706 0-46.545 20.839-46.545 46.545s20.839 46.545 46.545 46.545zM932.352 192l-400.873-0.326-221.091-219.788c-8.423-8.42-20.057-13.627-32.908-13.627-25.707 0-46.547 20.84-46.547 46.547 0 12.856 5.212 24.495 13.639 32.919l227.514 226.095c8.413 12.691 22.635 20.945 38.785 20.945 0.012 0 0.024 0 0.035 0l420.397 0.326-0.396 491.287c-1.28 57.53-9.775 65.932-61.789 67.095l61.393-0.419 0.396-55.436v56.017l-778.17-0.326c-48.873-1.652-57.879-10.519-59.555-55.203l0.326-503.296 186.461 0.326c25.706 0 46.545-20.839 46.545-46.545s-20.839-46.545-46.545-46.545l-137.309-0.256v0.209h-49.571c-49.885 0.058-90.555 39.434-92.689 88.802l-0.402 563.3c0.287 49.658 39.519 90.060 88.683 92.223l843.972 0.402c46.241-0.232 84.468-34.244 91.28-78.61l0.461-583.43c-5.247-46.653-44.434-82.597-92.034-82.688zM93.091 843.241v-33.071l0.209 32.884 28.951 0.186h-29.161z" />
<glyph unicode="&#xe902;" glyph-name="cross" d="M13.519 18.991c-8.451-8.741-13.65-20.645-13.65-33.764 0-26.831 21.751-48.581 48.581-48.581 13.119 0 25.023 5.2 33.75 13.637l927.504 927.504c8.451 8.741 13.65 20.645 13.65 33.764 0 26.831-21.751 48.581-48.581 48.581-13.119 0-25.023-5.2-33.75-13.637l-927.517-927.517zM13.506 946.494c8.791 8.788 20.934 14.224 34.347 14.224s25.556-5.436 34.347-14.224l927.517-927.517c8.438-8.727 13.637-20.632 13.637-33.75 0-26.831-21.751-48.581-48.581-48.581-13.119 0-25.023 5.2-33.764 13.65l-927.504 927.504c-8.788 8.791-14.224 20.934-14.224 34.347s5.436 25.556 14.224 34.347z" />
<glyph unicode="&#xe903;" glyph-name="delete" d="M844.8-64v742.4h-76.8v-665.6h-512v665.6h-76.8v-742.4h665.6zM896 729.6v76.8h-768v-76.8h768zM665.6 729.6h-307.2v230.4h307.2v-230.4zM409.6 806.4h204.8v102.4h-204.8v-102.4zM460.8 140.8h-76.8v435.2h76.8v-435.2zM640 140.8h-76.8v435.2h76.8v-435.2z" />
<glyph unicode="&#xe904;" glyph-name="edit" d="M250.488 178.469l201.182 85.651-123.498 121.506zM848.058 652.54l-127.481 131.465-369.497-364.517 132.461-137.441zM953.082 809.792c0 0-33.745 37.347-72.585 65.729s-68.717 0-68.717 0l-65.729-65.729 133.45-132.953c0 0 56.269 56.767 73.581 76.186s0 56.767 0 56.767zM810.959 109.629c0-9.216-7.471-16.687-16.687-16.687h-622.191c-9.216 0-16.687 7.471-16.687 16.687v617.268c0 9.216 7.471 16.687 16.687 16.687h395.56l82.39 87.664h-562.675c-11.12 0-20.135-9.014-20.135-20.135v-785.701c0-11.12 9.014-20.135 20.135-20.135h791.641c11.12 0 20.135 9.014 20.135 20.135v561.173l-88.171-81.839v-395.117z" />
<glyph unicode="&#xe905;" glyph-name="eye" d="M972.8 473.6c-21.299 164.454-231.629 307.2-460.8 307.2v0c-231.629-1.894-442.573-145.613-460.8-307.2h-51.2c22.17 196.403 241.050 356.198 508.877 358.4h5.53c260.762 0 484.198-162.509 509.594-358.4h-51.2zM509.645 64c-260.864 0-484.25 162.56-509.645 358.4h51.2c21.299-164.506 231.578-307.2 460.8-307.2v0c231.578 1.894 442.624 145.562 460.8 307.2h51.2c-22.17-196.454-240.998-356.198-508.826-358.4h-5.53zM512 192c-147.782 0.626-267.341 120.57-267.341 268.439 0 148.256 120.185 268.442 268.442 268.442s268.442-120.185 268.442-268.442c0-147.869-119.559-267.814-267.281-268.439h-2.261zM512 640.051c-104.142-2.481-187.617-87.492-187.617-192s83.475-189.519 187.387-191.996l0.23-32.004 1.638 32.051c104.371 2.157 188.155 87.275 188.155 191.961 0 105.263-84.708 190.741-189.675 191.986zM384 446.976c-0.003 0.305-0.004 0.667-0.004 1.028 0 70.334 56.728 127.418 126.925 127.996l0.567-64c-35.132-0.318-63.49-28.872-63.49-64.049 0-0.181 0.001-0.362 0.002-0.542z" />
<glyph unicode="&#xe906;" glyph-name="fit" d="M20.89 510.218c-12.967-12.971-20.987-30.888-20.987-50.678s8.020-37.707 20.987-50.678l304.139-304.139c13.008-13.261 31.13-21.487 51.173-21.487 39.588 0 71.68 32.092 71.68 71.68 0 20.048-8.231 38.174-21.509 51.195l-304.108 304.108c-12.972 12.973-30.893 20.997-50.688 20.997s-37.716-8.024-50.688-20.997zM325.018 206.111l579.256 579.256c13.020 13.278 31.146 21.509 51.195 21.509 39.588 0 71.68-32.092 71.68-71.68 0-20.043-8.227-38.165-21.487-51.173l-579.288-579.288c-12.918-12.667-30.632-20.485-50.171-20.485-39.588 0-71.68 32.092-71.68 71.68 0 19.544 7.822 37.262 20.507 50.193z" />
<glyph unicode="&#xe907;" glyph-name="friends" d="M984.405 19.819c-23.564 0-42.667 19.103-42.667 42.667l-0.384 3.968c0 0.725 0.171 1.387 0.192 2.133-2.062 116.7-70.67 216.896-169.409 264.438-5.546 6.111-9.621 11.188-13.589 16.351-4.080-1.057-8.773-1.685-13.605-1.728-32.77 0-59.313 26.543-59.313 59.285l-0.533 5.525c0 0.018 0 0.040 0 0.062 0 4.199 0.435 8.297 1.262 12.25-1.028 0.424-1.924 1.298-2.905 2.088l5.227 5.205c6.073 16.918 19.161 30.013 35.663 35.966l3.654 3.351c50.954 30.103 84.595 84.748 84.595 147.25 0 79.157-53.957 145.712-127.099 164.891-2.701 2.995-4.643 5.427-6.243 8.094-5.224-2.652-11.391-4.206-17.92-4.206-22.245 0-40.277 18.033-40.277 40.277 0 0.069 0 0.138 0.001 0.206l-0.384 3.787c0.094 21.66 17.164 39.304 38.586 40.317l1.99 1.923c133.593-9.898 238.231-120.719 238.231-255.979 0-80.856-37.392-152.979-95.827-200.019-0.346-2.114 0.017-3.756 0.017-5.527 129.919-61.39 218.928-189.963 222.328-339.677 0.316-2.14 0.53-4.146 0.603-6.188l0.386-4.044c0 0 0 0 0 0 0-23.534-19.054-42.618-42.577-42.667zM543.552 414.485c132.191-60.603 223.071-190.395 226.446-341.776 0.309-2.137 0.516-4.144 0.582-6.187l0.407-4.037c0-23.564-19.103-42.667-42.667-42.667s-42.667 19.103-42.667 42.667l-0.405 3.968c0 1.024 0.235 1.984 0.32 2.987-3.277 154.143-122.543 279.419-273.846 292.192-9.162-0.693-17.312-1.163-25.589-1.163s-16.405 0.469-24.491 1.237c-154.591-12.992-275.148-141.647-275.2-298.469v-0.155h-0.811v-0.533c0-23.564-19.103-42.667-42.667-42.667s-42.667 19.103-42.667 42.667l-0.384 3.968c0.038 3.693 0.542 7.252 1.455 10.644 5.138 149.951 95.784 277.829 224.581 336.683-58.335 48.497-97.009 121.794-97.009 204.124 0 142.080 115.179 257.259 257.259 257.259s257.259-115.179 257.259-257.259c0-82.55-38.881-156.019-99.33-203.093zM385.472 789.397c-94.488-0.036-171.072-76.643-171.072-171.136 0-94.516 76.62-171.136 171.136-171.136 94.471 0 171.063 76.547 171.136 171.001 0 0.039 0 0.076 0 0.114 0 94.504-76.611 171.115-171.115 171.115-0.030 0-0.060 0-0.090 0z" />
<glyph unicode="&#xe908;" glyph-name="heart" d="M522.24 0.256l-450.79 407.526c-44.307 51.214-71.338 118.44-71.45 191.976 2.511 164.024 136.047 296.007 300.408 296.007 1.263 0 2.524-0.008 3.783-0.023 0.267 0.004 0.808 0.006 1.35 0.006 79.542 0 152.046-30.13 206.723-79.6 54.147 49.47 126.652 79.6 206.194 79.6 0.542 0 1.084-0.001 1.625-0.004 0.983 0.014 2.244 0.022 3.506 0.022 164.407 0 297.97-132.055 300.408-295.882-0.109-73.789-27.139-141.015-71.762-192.602l-2.731-2.699-352-311.168-43.008 46.080 350.31 309.76c34.289 40.37 55.141 93.085 55.141 150.67 0 128.915-104.506 233.421-233.421 233.421-2.295 0-4.582-0.033-6.862-0.099-0.152 0.011-0.729 0.013-1.305 0.013-72.372 0-137.321-31.779-181.655-82.144l-24.705-28.402-24.474 28.16c-44.565 50.633-109.514 82.412-181.886 82.412-0.577 0-1.153-0.002-1.729-0.006-1.881 0.060-4.198 0.094-6.523 0.094-128.901 0-233.395-104.495-233.395-233.395 0-57.67 20.916-110.455 55.577-151.183l446.19-402.716zM486.682 202.496l-322.278 291.584c-22.612 28.781-36.265 65.534-36.265 105.476 0 94.728 76.792 171.52 171.52 171.52 1.527 0 3.049-0.020 4.566-0.060l-0.224-62.331c-0.384 0.005-0.838 0.008-1.292 0.008-60.576 0-109.789-48.646-110.707-109.003 0.228-24.891 8.406-47.742 22.104-66.263l316.096-285.363zM622.080 646.17l-56.064 30.054c22.86 39.746 59.88 69.17 104.015 81.624 15.92 4.638 32.803 7.137 50.269 7.137 31.056 0 60.266-7.9 85.731-21.799l-31.811-54.136c-15.597 8.538-34.17 13.56-53.916 13.56-11.132 0-21.891-1.596-32.060-4.571-28.059-7.881-51.62-26.589-65.879-51.333z" />
<glyph unicode="&#xe909;" glyph-name="home" d="M1013.845 396.139c-7.722-7.725-18.391-12.503-30.176-12.503s-22.454 4.778-30.176 12.503l-440.491 439.253-368.448-367.381h26.773c47.128 0 85.333-38.205 85.333-85.333v-45.333l0.235-256.981c2.859-27.627 12.608-35.307 43.093-37.461 37.653 2.773 41.771 14.357 42.155 61.525l-0.149 108.395c0.459 46.778 38.486 84.523 85.329 84.523 0.001 0 0.003 0 0.004 0h42.666v1.045l85.333 0.128v-1.173h42.667c47.128 0 85.333-38.205 85.333-85.333v-45.333h0.149v-53.675l0.128 14.315c0-66.837-0.427-81.067 42.283-84.288 35.904 2.859 41.856 13.845 42.795 55.467l-0.384-55.936h0.64v70.869c0-5.397 0-10.325-0.171-14.933l0.171 25.024-0.277 261.099c0 23.564 19.103 42.667 42.667 42.667s42.667-19.103 42.667-42.667l0.299-296.533h-0.299v-45.419c0-47.128-38.205-85.333-85.333-85.333h-85.333c-45.847 0.061-83.201 36.34-84.987 81.758l-0.176 110.242-0.363 16.939c0.149-2.261 0.256-4.8 0.363-7.296l-0.171 54.357h-23.467l22.165-0.149 1.024-46.933c-2.624 37.547-12.992 45.355-51.669 46.933h-70.592c-35.797-1.813-45.397-9.749-47.936-43.072l0.939 42.987h-1.131v-44.523c0 0.533 0 1.024 0.128 1.536l-0.128-5.504 0.107-76.501h-0.107v-45.44c0-47.128-38.205-85.333-85.333-85.333h-85.333c-45.752 0.067-83.043 36.202-84.965 81.49l-0.369 345.070h-1.28l0.363-57.045c-0.981 45.696-7.531 55.147-48.619 57.088l-76.971-0.192c-0.656-0.037-1.424-0.058-2.197-0.058-2.999 0-5.923 0.316-8.743 0.917l-0.729 0.143c-16.849 2.515-29.998 15.678-32.465 32.324-0.026 0.487-0.132 0.786-0.196 1.084-0.407 2.302-0.64 4.953-0.64 7.658 0 6.415 1.31 12.523 3.677 18.073 1.9 4.105 4.453 7.887 7.525 11.18 0.19 0.21 0.254 0.508 0.489 0.743l467.989 466.667c0.911 1.561 1.792 2.877 2.743 4.137 7.646 7.619 18.315 12.397 30.1 12.397s22.454-4.778 30.176-12.503l0.619-0.619 470.613-469.333c7.763-7.728 12.567-18.423 12.567-30.24 0-11.785-4.778-22.454-12.503-30.176zM683.669 42.368h20.267l-20.267 0.128v-0.171zM257.003 42.368h20.245l-20.245 0.128v-0.171zM170.453 326.699c0.192-8.768 0.192-18.752 0.192-30.4z" />
<glyph unicode="&#xe90a;" glyph-name="house" d="M853.333-64h-682.667v409.6h68.267v-341.333h546.133v341.333h68.267v-409.6zM921.6 345.6l-409.6 477.867-409.6-477.867-68.267 68.267 477.867 546.133 477.867-546.133zM648.533 72.533h-68.267v204.8h-136.533v-204.8h-68.267v273.067h273.067v-273.067zM512 391.68c-67.111 0-121.515 54.404-121.515 121.515s54.404 121.515 121.515 121.515c67.111 0 121.515-54.404 121.515-121.515-0.078-67.080-54.435-121.437-121.507-121.515zM512 573.884c-33.555 0-60.757-27.202-60.757-60.757s27.202-60.757 60.757-60.757c33.555 0 60.757 27.202 60.757 60.757 0 0.024 0 0.048 0 0.072-0.078 33.507-27.242 60.647-60.754 60.685z" />
<glyph unicode="&#xe90b;" glyph-name="laud" d="M358.4 550.4h-102.4v51.2h51.2l102.4 102.4v153.6c0 70.554 65.075 102.4 135.834 102.4 70.692 0 128-57.308 128-128h-64.102c0 35.277-10.957 76.8-46.080 76.8s-102.4-15.923-102.4-51.2v-153.6zM870.4-64h-307.2l-256 51.2h-51.2v51.2h51.2l256-51.2h256l153.6 460.8-358.4 51.2-5.12 332.8h64.102l-7.782-281.6 358.4-51.2zM204.8-12.8h-204.8v614.4h204.8v-614.4zM51.2 38.4h102.4v512h-102.4v-512z" />
<glyph unicode="&#xe90c;" glyph-name="lauds" d="M256 550.4v51.2h51.2l102.4 102.4v153.6c0 70.554 65.075 102.4 135.834 102.4 70.692 0 128-57.308 128-128zM870.4-64h-307.2l-256 51.2h-51.2v563.2l417.638 281.6-8.038-281.6 358.4-51.2zM204.8-12.8h-204.8v614.4h204.8v-614.4z" />
<glyph unicode="&#xe90d;" glyph-name="list" d="M96.128 604.979c-51.304 0.978-92.518 42.797-92.518 94.243 0 52.058 42.201 94.259 94.259 94.259 52.052 0 94.25-42.192 94.259-94.242-0.548-52.177-42.973-94.263-95.227-94.263-0.272 0-0.543 0.001-0.814 0.003zM96.128 730.65c-17.093-0.331-30.822-14.265-30.822-31.406 0-17.348 14.063-31.411 31.411-31.411 17.346 0 31.408 14.060 31.411 31.405-0.188 17.389-14.327 31.413-31.742 31.413-0.091 0-0.181 0-0.272-0.001zM96.128 353.638c-51.304 0.978-92.518 42.797-92.518 94.243 0 52.058 42.201 94.259 94.259 94.259 52.052 0 94.25-42.192 94.259-94.242-0.534-52.189-42.964-94.289-95.227-94.289-0.272 0-0.543 0.001-0.814 0.003zM96.128 479.309c-17.093-0.331-30.822-14.265-30.822-31.406 0-17.348 14.063-31.411 31.411-31.411 17.346 0 31.408 14.060 31.411 31.405-0.202 17.378-14.336 31.387-31.742 31.387-0.091 0-0.181 0-0.272-0.001zM96.128 102.272c-51.329 0.964-92.57 42.8-92.57 94.269 0 52.072 42.213 94.285 94.285 94.285s94.285-42.213 94.285-94.285c0-0.004 0-0.007 0-0.011-0.563-52.179-42.993-94.262-95.252-94.262-0.263 0-0.525 0.001-0.788 0.003zM96.128 227.942c-17.093-0.331-30.822-14.265-30.822-31.406 0-17.348 14.063-31.411 31.411-31.411 17.346 0 31.408 14.060 31.411 31.405-0.188 17.389-14.327 31.413-31.742 31.413-0.091 0-0.181 0-0.272-0.001zM1024.794 613.606h-768v51.2h716.8v76.8h-716.8l-0.666 51.866h768zM1024.128 353.613l-767.334 3.994-0.666 58.88 717.466-7.68v76.8h-716.8v51.2h768zM1024.128 102.246h-768l0.666 50.56h716.8v76.8l-717.466-1.664 0.666 52.864h768z" />
<glyph unicode="&#xe90e;" glyph-name="lock" d="M511.744-64c-211.975 0.255-383.745 172.025-384 383.975v192.025h768v-192c-0.273-211.967-172.033-383.727-383.974-384zM191.744 448v-128c0-176.731 143.269-320 320-320s320 143.269 320 320v128h-640zM511.744 96c-0.001 0-0.002 0-0.003 0-52.738 0-95.544 42.526-95.996 95.157v64.843c0 53.019 42.981 96 96 96s96-42.981 96-96v-64.8c-0.453-52.674-43.259-95.2-95.997-95.2-0.001 0-0.002 0-0.004 0zM511.744 288c-17.673 0-32-14.327-32-32v-64c0-17.673 14.327-32 32-32s32 14.327 32 32v64c0 17.673-14.327 32-32 32zM767.744 576h-64v138.080c-5.737 101.573-89.503 181.768-192 181.768s-186.264-80.195-191.977-181.262l-0.023-138.586h-64v138.080c5.479 137.159 117.997 246.275 256 246.275s250.521-109.116 255.984-245.78l0.016-138.575z" />
<glyph unicode="&#xe90f;" glyph-name="message" d="M0-22.656v938.667l1023.573 0.896 0.427-683.563h-682.667v42.667h640v597.333h-938.667v-768l128 170.667 42.667-42.667zM810.667 660.011h-597.333v42.667h597.333v-42.667zM640 489.344h-426.667v42.667h426.667v-42.667z" />
<glyph unicode="&#xe910;" glyph-name="mic" d="M512 168.713c-103.933 2.010-187.415 86.736-187.415 190.961 0 1.052 0.009 2.102 0.025 3.15l-0.002 403.222c-0.072 1.947-0.114 4.234-0.114 6.531 0 103.557 83.949 187.506 187.506 187.506s187.506-83.949 187.506-187.506c0-2.297-0.041-4.584-0.123-6.861l0.009-403.051c0.015-0.89 0.023-1.94 0.023-2.992 0-104.225-83.483-188.952-187.228-190.959zM512 897.953c-70.674-1.354-127.447-58.965-127.447-129.836 0-0.715 0.006-1.428 0.017-2.14l-0.001-403.311c-0.048-1.311-0.076-2.851-0.076-4.397 0-70.42 57.087-127.507 127.507-127.507s127.507 57.087 127.507 127.507c0 1.546-0.028 3.086-0.082 4.62l0.006 403.158c0.010 0.605 0.016 1.318 0.016 2.033 0 70.879-56.769 128.498-127.319 129.871zM429.567 634.179c8.214 0.189 14.815 6.907 14.815 15.166 0 0.108-0.001 0.216-0.003 0.307l0.001 132.088c-0.007 0.307-0.011 0.614-0.011 0.923 0 20.946 16.98 37.926 37.926 37.926 1.702 0 3.377-0.112 4.827-0.308h11.605c8.567 0 15.512 6.945 15.512 15.512s-6.945 15.512-15.512 15.512l-11.305-0.027c-2.446 0.276-4.932 0.418-7.452 0.418-36.299 0-65.726-29.426-65.726-65.726 0-1.485 0.049-2.959 0.136-4.221v-132.040c-0.003-0.119-0.004-0.239-0.004-0.359 0-8.378 6.792-15.17 15.17-15.17 0.001 0 0.003 0 0.004 0zM429.567 572.132c8.214 0.189 14.815 6.907 14.815 15.166 0 0.121-0.001 0.242-0.004 0.345l-0.011 15.426c0.12 0.767 0.182 1.554 0.182 2.354 0 8.378-6.792 15.17-15.17 15.17s-15.17-6.792-15.17-15.17c0-0.801 0.062-1.587 0.171-2.269v-15.494c-0.003-0.119-0.004-0.239-0.004-0.359 0-8.378 6.792-15.17 15.17-15.17 0.001 0 0.003 0 0.004 0zM513.955 44.637c178.046 6.463 320.401 152.839 320.401 332.464 0 2.259-0.023 4.513-0.062 6.425l-0.002 17.885c0.014 0.372 0.021 0.745 0.021 1.12 0 16.568-13.431 29.999-29.999 29.999s-29.999-13.431-29.999-29.999c0-0.375 0.007-0.748 0.019-1.066l-0.001-17.82c0.006-0.777 0.010-1.555 0.010-2.334 0-146.959-115.275-266.995-261.015-274.645h-3.186c-141.805 0-260.551 129.403-260.551 276.859l-0.002 17.885c0.014 0.372 0.021 0.745 0.021 1.12 0 16.568-13.431 29.999-29.999 29.999s-29.999-13.431-29.999-29.999c0-0.375 0.007-0.748 0.019-1.066l0.006-17.589c-0.049-2.343-0.073-4.691-0.073-7.045 0-179.44 142.176-325.673 320.617-332.211h3.186zM633.873-63.998c16.627 0.6 29.921 14.268 29.921 31.041s-13.295 30.441-29.976 31.042l-254.955-0.002c-16.627-0.6-29.921-14.268-29.921-31.041s13.295-30.441 29.976-31.042h254.9zM504.491-32.977c-16.638 0.317-30.003 13.879-30.003 30.563 0 0.175 0.001 0.35 0.004 0.525v77.532c0 16.568 13.431 29.999 29.999 29.999s29.999-13.431 29.999-29.999v-77.559c0.003-0.159 0.005-0.346 0.005-0.534 0-16.703-13.413-30.273-30.056-30.527z" />
<glyph unicode="&#xe911;" glyph-name="person" d="M974.988-19.107c0-25.706-20.839-46.545-46.545-46.545s-46.545 20.839-46.545 46.545v0.582h-1.28c-22.994 181.094-173.234 320.558-357.222 326.548-4.576-0.148-8.486-0.59-12.512-0.59s-7.913 0.442-11.892 0.605c-184.555-6.040-334.758-145.492-357.557-324.718l-1.355-1.845v-0.582c0-25.706-20.839-46.545-46.545-46.545s-46.545 20.839-46.545 46.545l-0.442 4.329c0.028 6.204 1.265 12.111 3.487 17.508 24.023 162.993 129.877 297.006 273.843 360.361-83.469 60.77-139.416 159.25-139.416 270.796 0 180.291 146.155 326.447 326.447 326.447s326.447-146.155 326.447-326.447c0-111.547-55.947-210.026-141.311-268.909 147.271-65.839 253.798-201.831 276.273-364.659 1.468-6.24 2.187-10.619 2.253-15.156zM744.006 633.763c0 128.776-104.394 233.169-233.169 233.169s-233.169-104.394-233.169-233.169c0-128.776 104.394-233.169 233.169-233.169s233.169 104.394 233.169 233.169z" />
<glyph unicode="&#xe912;" glyph-name="pointer" d="M258.278 345.754c-64.704 65.281-104.685 155.159-104.685 254.374s39.981 189.094 104.711 254.401c64.511 65.251 154.066 105.677 253.062 105.677 0.322 0 0.643 0 0.965-0.001h-0.050c0.239 0.001 0.521 0.001 0.804 0.001 99.023 0 188.605-40.425 253.142-105.671 64.705-65.327 104.664-155.2 104.664-254.406s-39.959-189.080-104.661-254.403l-46.615 44.982c53.245 53.751 86.143 127.737 86.143 209.408s-32.898 155.657-86.166 209.431c-52.702 53.348-125.887 86.403-206.792 86.403-0.192 0-0.384 0-0.576-0.001h0.030c-0.143 0-0.312 0-0.482 0-80.925 0-154.13-33.054-206.851-86.398-53.272-53.779-86.171-127.765-86.171-209.436s32.898-155.657 86.166-209.431zM512.282-64.179l-190.797 300.595 55.322 34.048 135.475-213.427 135.501 213.427 55.322-34.048zM512.282 414.054c-105.167 1.686-189.773 87.335-189.773 192.745 0 106.463 86.305 192.768 192.768 192.768s192.768-86.305 192.768-192.768c0-0.001 0-0.002 0-0.002-1.026-106.67-87.737-192.746-194.552-192.746-0.426 0-0.852 0.001-1.277 0.004zM512.282 735.309c-70.089-1.153-126.464-58.241-126.464-128.496 0-70.975 57.537-128.512 128.512-128.512 70.969 0 128.503 57.527 128.512 128.495-0.636 71.128-58.443 128.542-129.659 128.542-0.317 0-0.633-0.001-0.949-0.003z" />
<glyph unicode="&#xe913;" glyph-name="search" d="M416.307 128c-229.75 0-416 186.25-416 416s186.25 416 416 416c229.75 0 416-186.25 416-416-0.262-229.645-186.355-415.738-415.975-416zM416.307 896c-194.404 0-352-157.596-352-352s157.596-352 352-352c194.404 0 352 157.596 352 352-0.218 194.316-157.684 351.782-351.979 352zM928.307-64c-0.022 0-0.047 0-0.073 0-26.497 0-50.48 10.764-67.816 28.157l-178.435 172.956 44.57 46.080 178.765-173.312c5.822-5.994 13.958-9.713 22.963-9.713 17.673 0 32 14.327 32 32 0 0.013 0 0.026 0 0.039 0 0.034 0 0.077 0 0.121 0 8.798-3.582 16.76-9.368 22.506l-173.621 179.202 46.080 44.518 173.261-178.739c17.354-17.366 28.087-41.35 28.087-67.841 0-53.005-42.969-95.974-95.974-95.974-0.145 0-0.291 0-0.436 0.001zM235.418 363.059c-46.255 46.349-74.858 110.33-74.858 180.992s28.603 134.642 74.862 180.996l45.257-45.239c-34.691-34.767-56.143-82.757-56.143-135.757s21.452-100.99 56.147-135.76z" />
<glyph unicode="&#xe914;" glyph-name="sending" d="M694.927-64.082l-276.234 248.975v-81.285l10.527 10.24 45.384-46.776-121.057-117.699v381.972l310.129-279.532 257.536 802.058-800.768-286.249 171.868-167.649 331.776 251.372 39.301-51.999-376.381-285.225-286.72 279.777 1023.365 365.855z" />
<glyph unicode="&#xe915;" glyph-name="settings" d="M505.882 289.050h-0.563c-43.090 0.186-81.909 18.314-109.402 47.293-27.914 29.049-45.065 68.493-45.065 111.942 0 88.885 71.778 161.005 160.533 161.558 41.599-0.128 78.86-18.368 104.371-47.236 28.035-29.232 45.218-68.79 45.218-112.361 0-0.511-0.002-1.021-0.007-1.53 0.007-0.433 0.010-1.036 0.010-1.64 0-86.25-69.086-156.364-154.939-158.024zM506.214 545.69c-51.749-0.861-93.369-43.014-93.369-94.887 0-0.355 0.002-0.71 0.006-1.065-0.003-0.205-0.004-0.512-0.004-0.819 0-26.119 10.293-49.833 27.045-67.308 16.494-17.413 39.794-28.302 65.638-28.407l0.352-32.077v32.077c51.562 0.973 92.987 43.001 92.987 94.704 0 0.429-0.003 0.857-0.009 1.284 0.003 0.203 0.005 0.519 0.005 0.835 0 26.106-10.283 49.81-27.020 67.283-16.493 17.395-39.781 28.273-65.611 28.381zM616.346-64.23l-197.12 0.742-38.144 149.606c-39.997 14.61-74.579 34.352-105.137 58.897l-138.652-38.724-97.997 177.050 97.997 99.712c-3.666 19.969-5.763 42.948-5.763 66.417 0 19.724 1.481 39.102 4.337 58.028l-110.344 112.559 99.251 176.282 150.528-43.162c30.046 24.515 64.914 44.639 102.748 58.652l5.719 26.878 61.44-8.090-8.269-67.302-19.61-5.837c-44.493-13.55-82.899-35.524-115.144-64.265l-12.216-10.794-135.68 38.912-51.2-90.982 99.379-103.501-3.098-16.666c-3.56-17.82-5.66-38.359-5.785-59.366 0-0.127 0-0.156 0-0.186 0-25.295 2.798-49.936 8.101-73.631l3.265-15.093-88.064-89.6 50.586-91.366 124.058 33.971 12.339-10.726c31.21-27.388 68.519-48.678 109.554-61.546l18.856-5.705 34.79-136.397 101.734-0.435 37.709 146.381 14.259 6.016c32.148 13.926 59.797 31.761 84.017 53.361l12.214 10.767 135.68-38.938 51.2 91.008-99.251 103.296 3.098 16.64c3.505 17.85 5.602 38.456 5.785 59.52-0.054 16.677-1.346 32.852-3.786 48.649l-2.024 14.276 113.382 115.354-50.534 91.341-148.48-40.653-12.442 11.469c-24.734 23.063-53.509 42.21-85.075 56.208l-16.147 6.871-37.325 146.611-156.672 0.486 0.179 61.286 204.339-0.64 41.728-161.075c29.485-14.491 54.9-31.304 77.881-50.888l162.247 44.975 97.946-177.024-125.312-127.488c1.386-11.869 2.176-25.62 2.176-39.556 0-0.107 0-0.213 0-0.32-0.131-19.334-1.624-38.221-4.39-56.692l110.348-112.43-99.2-176.358-150.579 43.213c-21.275-17.337-45.315-32.737-71.022-45.245z" />
<glyph unicode="&#xe916;" glyph-name="shopping" d="M955.733 243.2h-682.667l-136.533 614.4h-136.533v68.267h204.8l136.533-614.4h546.133l68.267 341.333h-546.133v68.267h614.4zM372.941-29.867c-0.182-0.001-0.398-0.002-0.614-0.002-56.554 0-102.4 45.846-102.4 102.4s45.846 102.4 102.4 102.4c56.553 0 102.399-45.845 102.4-102.398 0-0.001 0-0.001 0-0.002 0-56.338-45.497-102.050-101.753-102.398zM372.941 106.667c-18.851 0-34.133-15.282-34.133-34.133s15.282-34.133 34.133-34.133c18.851 0 34.133 15.282 34.133 34.133s-15.282 34.133-34.133 34.133zM546.133 379.733h-68.267v204.8h68.267v-204.8zM750.933 379.733h-68.267v204.8h68.267v-204.8zM850.807-29.867c-0.182-0.001-0.398-0.002-0.614-0.002-56.554 0-102.4 45.846-102.4 102.4s45.846 102.4 102.4 102.4c56.553 0 102.399-45.845 102.4-102.398 0-0.001 0-0.001 0-0.002 0-56.338-45.497-102.050-101.753-102.398zM850.807 106.667c-18.851 0-34.133-15.282-34.133-34.133s15.282-34.133 34.133-34.133c18.851 0 34.133 15.282 34.133 34.133s-15.282 34.133-34.133 34.133z" />
<glyph unicode="&#xe917;" glyph-name="shoppingcar" d="M944.128 245.043h-664.832l-169.472 608.896h-110.080v67.661h161.536l169.728-608.922h556.288l55.552 304.461h-536.064v67.661h617.472zM372.992-25.6c-56.004 0.073-101.376 45.49-101.376 101.504 0 56.059 45.445 101.504 101.504 101.504s101.504-45.445 101.504-101.504c-0.218-56.016-45.606-101.359-101.618-101.504zM372.992 109.722c-0.015 0-0.033 0-0.051 0-18.691 0-33.843-15.152-33.843-33.843s15.152-33.843 33.843-33.843c18.691 0 33.843 15.152 33.843 33.843 0 0.009 0 0.018 0 0.027-0.115 18.62-15.173 33.686-33.78 33.816zM814.080-25.6c-56.004 0.073-101.376 45.49-101.376 101.504 0 56.059 45.445 101.504 101.504 101.504s101.504-45.445 101.504-101.504c-0.131-56.051-45.57-101.446-101.626-101.504zM814.080 109.722c-0.015 0-0.033 0-0.051 0-18.691 0-33.843-15.152-33.843-33.843s15.152-33.843 33.843-33.843c18.691 0 33.843 15.152 33.843 33.843 0 0.009 0 0.018 0 0.027-0.015 18.661-15.132 33.787-33.789 33.816zM542.464 380.339h-67.84v169.139h67.84v-169.139zM746.24 380.339h-67.84v169.139h67.84v-169.139z" />
<glyph unicode="&#xe918;" glyph-name="text" d="M877.714-64h-731.429v877.714h146.286v-73.143h-73.143l-12.215-740.571h609.499l-12.142 740.571h-73.143v73.143h146.286v-877.714zM658.286 667.429h-292.571v219.429l59.977 9.143c11.532 37.353 45.751 64.024 86.199 64.024s74.667-26.671 86.029-63.386l60.367-9.781v-219.429zM438.857 740.571h146.286v73.143l-42.789 18.359v31.963c0.023 0.446 0.037 0.968 0.037 1.493 0 16.845-13.656 30.501-30.501 30.501s-30.501-13.656-30.501-30.501c0-0.525 0.013-1.047 0.040-1.566l-0.003-31.891-42.569-18.359v-73.143zM731.429 374.857h-438.857v73.143h438.857v-73.143zM731.429 228.571h-438.857v73.143h438.857v-73.143zM731.429 82.286h-438.857v73.143h438.857v-73.143zM512 521.143h-219.429v73.143h219.429v-73.143z" />
<glyph unicode="&#xe919;" glyph-name="typing" d="M288 504.367c-51.92 0.631-93.766 42.867-93.766 94.876 0 52.402 42.481 94.883 94.883 94.883 52.4 0 94.879-42.477 94.883-94.876-0.382-52.485-43.017-94.884-95.555-94.884-0.156 0-0.313 0-0.469 0.001zM288 630.854c-17.307-0.21-31.255-14.289-31.255-31.625 0-17.467 14.16-31.628 31.628-31.628s31.628 14.16 31.628 31.628c0 0.007 0 0.015 0 0.022-0.145 17.485-14.353 31.604-31.859 31.604-0.049 0-0.099 0-0.148 0zM512 504.367c-51.97 0.566-93.882 42.827-93.882 94.878 0 52.402 42.481 94.883 94.883 94.883 52.401 0 94.88-42.478 94.883-94.877-0.382-52.485-43.017-94.884-95.555-94.884-0.115 0-0.231 0-0.346 0.001zM512 630.854c-17.307-0.21-31.255-14.289-31.255-31.625 0-17.467 14.16-31.628 31.628-31.628s31.628 14.16 31.628 31.628c0 0.007 0 0.015 0 0.022-0.145 17.485-14.353 31.604-31.859 31.604-0.049 0-0.099 0-0.148 0zM735.884 504.367c-51.869 0.696-93.649 42.906-93.649 94.875 0 52.402 42.481 94.883 94.883 94.883 52.4 0 94.878-42.476 94.883-94.875-0.302-52.469-42.906-94.886-95.417-94.886-0.246 0-0.492 0.001-0.737 0.003zM735.884 630.854c-17.256-0.275-31.139-14.328-31.139-31.624 0-17.467 14.16-31.628 31.628-31.628s31.628 14.16 31.628 31.628c0 0.007 0 0.014 0 0.021-0.144 17.485-14.353 31.604-31.859 31.604-0.090 0-0.181 0-0.271-0.001zM0-17.478v930.909h1024v-664.087h-736v63.255h672v537.6h-896v-681.891l102.633 131.887 50.735-38.586z" />
<glyph unicode="&#xe91a;" glyph-name="user" d="M504.862 384c-158.586 0.633-286.901 129.338-286.901 288.013 0 159.066 128.949 288.015 288.015 288.015s288.014-128.948 288.015-288.013c-0.514-159.176-129.67-288.015-288.917-288.015-0.075 0-0.149 0-0.224 0zM504.862 896c-123.357-0.479-223.172-100.59-223.172-224.013 0-123.72 100.295-224.015 224.015-224.015s224.015 100.295 224.015 224.015c0 0.010 0 0.020 0 0.030-0.394 123.786-100.834 223.983-224.677 223.983-0.064 0-0.128 0-0.191 0zM933.406-64h-842.812l38.219 342.618 178.477 71.108 24.004-59.422-142.758-56.892-26.022-233.412h699.211l-26.022 233.412-142.999 56.892 23.883 59.422 178.507-71.108z" />
</font>
</defs>
</svg>
